#!OML:ASF F:\VICON\USERDATA\INSTALL\rory3\rory3.ASF
:FULLY-SPECIFIED
:DEGREES
430
root 9.41179 18.1789 -10.5727 188.306 129.033 175.525
lowerback 21.3282 2.05281 -7.53455
upperback 5.40673 1.24611 -0.0524903
thorax -6.13156 0.759389 3.90614
lowerneck -15.5652 -11.2692 -14.3327
upperneck 22.2005 -17.2621 19.8608
head 13.2725 -6.83532 7.02925
rclavicle -1.11319e-014 2.46493e-014
rhumerus -30.2713 26.1951 -93.1215
rradius 92.7545
rwrist -7.10129
rhand -18.6149 9.7551
rfingers 7.12502
rthumb 7.67685 -20.0856
lclavicle -1.11319e-014 2.46493e-014
lhumerus -18.3454 -50.6616 77.6647
lradius 92.0663
lwrist -3.075
lhand -20.897 28.7101
lfingers 7.12502
lthumb 5.47376 58.6194
rfemur -20.2479 -10.2228 17.4657
rtibia 46.7715
rfoot -2.00252 -5.31683
rtoes -3.4091
lfemur -23.708 3.2337 -18.3923
ltibia 23.8739
lfoot -7.35623 3.30745
ltoes -1.53946
431
root 9.4296 18.1683 -10.5434 188.145 129.32 175.821
lowerback 21.1062 1.96562 -7.54832
upperback 5.31248 1.14236 -0.0198783
thorax -6.10743 0.708976 3.97888
lowerneck -14.7131 -11.5986 -14.7824
upperneck 21.4673 -17.8062 20.5794
head 13.0669 -7.12442 7.27132
rclavicle -2.82274e-014 9.54166e-015
rhumerus -30.5521 26.5034 -93.4697
rradius 93.0005
rwrist -7.50896
rhand -17.8566 9.77778
rfingers 7.12502
rthumb 8.40874 -20.0348
lclavicle -2.82274e-014 9.54166e-015
lhumerus -18.8806 -50.7895 78.0261
lradius 92.5903
lwrist -3.26402
lhand -21.1045 28.4
lfingers 7.12502
lthumb 5.27349 58.3143
rfemur -20.0572 -10.6716 17.2487
rtibia 46.2461
rfoot -2.3249 -5.9474
rtoes -3.19608
lfemur -23.1887 3.18966 -18.5249
ltibia 24.0267
lfoot -7.49426 3.72757
ltoes -2.88873
432
root 9.45017 18.153 -10.5157 187.925 129.718 176.098
lowerback 20.9289 1.89179 -7.4926
upperback 5.20914 1.06337 -0.0201607
thorax -6.11809 0.670995 3.96866
lowerneck -15.2002 -11.6481 -14.6393
upperneck 22.0198 -17.9065 20.3464
head 13.3693 -7.12628 7.14359
rclavicle -7.95139e-014 -1.59028e-015
rhumerus -30.8944 26.9697 -93.8747
rradius 93.2774
rwrist -8.22444
rhand -17.2517 9.62985
rfingers 7.12502
rthumb 8.9925 -20.1585
lclavicle -7.95139e-014 -1.59028e-015
lhumerus -19.5089 -50.909 78.4895
lradius 93.0398
lwrist -3.54653
lhand -21.2894 28.4529
lfingers 7.12502
lthumb 5.09488 58.3716
rfemur -19.8438 -11.1171 16.9923
rtibia 45.7286
rfoot -2.80097 -6.77928
rtoes -0.736186
lfemur -22.6035 3.07414 -18.6424
ltibia 24.178
lfoot -7.61787 4.31308
ltoes -3.66034
433
root 9.47737 18.139 -10.4894 187.689 130.298 176.382
lowerback 20.8295 1.81917 -7.35783
upperback 5.08218 0.989933 -0.0730509
thorax -6.19465 0.637148 3.85362
lowerneck -15.1532 -11.733 -14.7803
upperneck 22.0933 -18.0586 20.4676
head 13.4582 -7.19368 7.19147
rclavicle -9.14409e-015 -3.4191e-014
rhumerus -31.2995 27.5123 -94.3714
rradius 93.5208
rwrist -8.98074
rhand -16.7376 9.28564
rfingers 7.12502
rthumb 9.48848 -20.4807
lclavicle -9.14409e-015 -3.4191e-014
lhumerus -20.3361 -50.8916 79.0636
lradius 93.4258
lwrist -3.79226
lhand -21.6326 27.9644
lfingers 7.12502
lthumb 4.76356 57.8908
rfemur -19.6007 -11.5504 16.6928
rtibia 45.2558
rfoot -3.30969 -7.29543
rtoes -0.188747
lfemur -21.949 2.97822 -18.768
ltibia 24.367
lfoot -7.86708 4.9745
ltoes -3.03451
434
root 9.50433 18.1325 -10.4535 187.52 130.713 176.582
lowerback 20.609 1.64389 -7.17102
upperback 4.91581 0.801348 -0.120152
thorax -6.23724 0.54606 3.74578
lowerneck -13.9364 -11.9902 -15.3928
upperneck 21.2723 -18.518 21.3119
head 13.1665 -7.47918 7.54287
rclavicle 9.54166e-014 -4.29375e-014
rhumerus -31.8258 28.0169 -95.033
rradius 93.6992
rwrist -9.26027
rhand -16.5556 9.11563
rfingers 7.12502
rthumb 9.66412 -20.6427
lclavicle 9.54166e-014 -4.29375e-014
lhumerus -21.2324 -50.7096 79.5898
lradius 93.806
lwrist -4.09352
lhand -21.812 27.1333
lfingers 7.12502
lthumb 4.59026 57.0635
rfemur -19.4679 -12.0669 16.5424
rtibia 44.8546
rfoot -3.76609 -7.6492
rtoes -1.81747
lfemur -21.4467 2.96134 -18.8226
ltibia 24.5908
lfoot -8.16205 5.39036
ltoes -2.78587
435
root 9.5184 18.1241 -10.4249 187.18 131.171 176.642
lowerback 20.5794 1.56612 -6.91923
upperback 4.74684 0.736704 -0.177076
thorax -6.39759 0.517829 3.55665
lowerneck -13.5603 -12.1435 -15.3596
upperneck 21.1024 -18.8194 21.4873
head 13.1127 -7.62464 7.54604
rclavicle 7.35503e-014 -1.03368e-014
rhumerus -32.3605 28.2432 -95.7039
rradius 93.8304
rwrist -9.59334
rhand -16.4842 9.4834
rfingers 7.12502
rthumb 9.73297 -20.2717
lclavicle 7.35503e-014 -1.03368e-014
lhumerus -21.9372 -50.7615 79.9892
lradius 94.2112
lwrist -4.45271
lhand -21.5557 27.1295
lfingers 7.12502
lthumb 4.83774 57.0543
rfemur -19.3855 -12.4375 16.4739
rtibia 44.5312
rfoot -4.2688 -8.15219
rtoes -2.99994
lfemur -20.9196 2.80334 -18.7502
ltibia 24.7789
lfoot -8.37744 5.96929
ltoes -2.67377
436
root 9.52649 18.1153 -10.3987 186.907 131.667 176.778
lowerback 20.5658 1.53781 -6.78662
upperback 4.59748 0.714844 -0.1943
thorax -6.55084 0.511135 3.46753
lowerneck -13.7349 -12.2412 -15.2121
upperneck 21.3401 -18.9907 21.3343
head 13.2463 -7.68031 7.4245
rclavicle -3.10104e-014 2.78299e-014
rhumerus -32.7907 28.4988 -96.2273
rradius 93.9116
rwrist -10.2221
rhand -16.2549 9.72298
rfingers 7.12502
rthumb 9.95425 -20.0217
lclavicle -3.10104e-014 2.78299e-014
lhumerus -22.6066 -50.8518 80.4852
lradius 94.6151
lwrist -4.65444
lhand -21.5142 27.5939
lfingers 7.12502
lthumb 4.87782 57.5178
rfemur -19.3314 -12.7121 16.336
rtibia 44.2772
rfoot -4.63477 -8.95714
rtoes -1.73738
lfemur -20.4195 2.7766 -18.7613
ltibia 24.9297
lfoot -8.42723 6.44515
ltoes -3.35612
